<?xml version="1.0"?>
<!-- This Source Code Form is subject to the terms of the Mozilla Public
   - License, v. 2.0. If a copy of the MPL was not distributed with this
   - file, You can obtain one at http://mozilla.org/MPL/2.0/. -->
<svg xmlns="http://www.w3.org/2000/svg" xmlns:xlink="http://www.w3.org/1999/xlink" width="16" height="16" viewBox="0 0 16 16">
  <style>
    path {
      fill-rule: evenodd;
      fill:#FFFFFF;
    }
  </style>
  <path d="M215,199l-13,13-1-1,2.341-2.341a10.226,10.226,0,0,1-1.283-4.6c-0.087-.927-0.094-3.036-0.091-4.217a1,1,0,0,1,.838-0.98l5.181-.862,5.156,0.858L214,198Zm-7.014.015-4.925.825a0.066,0.066,0,0,0-.061.061c0,1.945.026,3.428,0.085,4.068a9.629,9.629,0,0,0,1,3.941l0.789-.789a7.9,7.9,0,0,1-.886-3.526c-0.054-.569,0-1.022,0-2.727l3.993-.666v3.812l4.282-4.282Zm0,10.792a3.754,3.754,0,0,1-1.215-.578l1.215-1.215v1.793Zm0,1.153a5.33,5.33,0,0,0,3.18-1.957,8.4,8.4,0,0,0,1.72-5.034c0.019-.208.034-0.532,0.047-0.9l1.06-1.06c-0.012.805-.036,1.582-0.08,2.053a9.5,9.5,0,0,1-1.942,5.585,6.324,6.324,0,0,1-3.986,2.365,6.411,6.411,0,0,1-2.8-1.2l0.739-.739A5.561,5.561,0,0,0,207.987,210.96Z" transform="translate(-200 -197)"/>
</svg>
