<?xml version="1.0"?>
<!-- This Source Code Form is subject to the terms of the Mozilla Public
   - License, v. 2.0. If a copy of the MPL was not distributed with this
   - file, You can obtain one at http://mozilla.org/MPL/2.0/. -->
<svg xmlns="http://www.w3.org/2000/svg" xmlns:xlink="http://www.w3.org/1999/xlink" width="16" height="16" viewBox="0 0 16 16">
  <style>
    path {
      fill-rule: evenodd;
      fill:#FFFFFF;
    }
  </style>
  <path d="M213.914,185.059a9.5,9.5,0,0,1-1.942,5.585,4.542,4.542,0,0,1-7.972,0,9.5,9.5,0,0,1-1.942-5.585c-0.087-.927-0.094-3.036-0.091-4.217a1,1,0,0,1,.838-0.98l5.181-.862,5.181,0.862a1,1,0,0,1,.838.98C214.008,182.023,214,184.132,213.914,185.059Zm-1-4.219-4.925-.825-4.925.825a0.066,0.066,0,0,0-.061.061c0,1.945.026,3.428,0.085,4.068a8.4,8.4,0,0,0,1.72,5.034,3.564,3.564,0,0,0,6.362,0,8.4,8.4,0,0,0,1.72-5.034c0.06-.641.091-2.124,0.085-4.068A0.066,0.066,0,0,0,212.911,180.84Zm-8.918,3.755c-0.054-.569,0-1.022,0-2.727l3.993-.666v9.6A4.725,4.725,0,0,1,205.472,189C204.556,187.8,204.228,187.079,203.993,184.6Z" transform="translate(-200 -178)"/>
</svg>
